<?xml version="1.0" encoding="utf-8"?>
<!-- Generator: Adobe Illustrator 28.0.0, SVG Export Plug-In . SVG Version: 6.00 Build 0)  -->
<svg version="1.1" id="Слой_1" xmlns="http://www.w3.org/2000/svg" xmlns:xlink="http://www.w3.org/1999/xlink" x="0px" y="0px"
	 viewBox="0 0 60 16" style="enable-background:new 0 0 60 16;" xml:space="preserve">
<style type="text/css">
	.st0{fill:#0500FF;}
	.st1{fill:url(#SVGID_1_);}
	.st2{fill:url(#SVGID_00000014611740530589128030000014946245681922719382_);}
</style>
<g>
	<path class="st0" d="M27.1,3.8h2.8v1.6c0.9-1.4,2-1.6,3.5-1.6v2.8h-0.7c-1.9,0-2.7,0.9-2.7,2.6v3h-2.9L27.1,3.8L27.1,3.8z"/>
	<path class="st0" d="M42.8,12.1H40v-0.8c-0.6,0.7-1.5,1-2.5,1c-2,0-3.1-1.2-3.1-3.4V3.8h2.9v4.6c0,1,0.5,1.6,1.4,1.6S40,9.4,40,8.4
		V3.8h2.9L42.8,12.1L42.8,12.1z"/>
	<path class="st0" d="M43.5,9.6h2.7c0.1,0.6,0.5,0.9,1.5,0.9c0.8,0,1.3-0.2,1.3-0.5c0-0.3-0.2-0.4-0.9-0.6L46,8.8
		c-1.5-0.3-2.2-1.2-2.2-2.5c0-1.8,1.3-2.7,3.8-2.7s3.8,0.9,4,2.8h-2.7c0-0.5-0.6-0.8-1.4-0.8c-0.7,0-1.1,0.2-1.1,0.6
		c0,0.3,0.3,0.5,0.9,0.7l2.3,0.6c1.5,0.4,2.2,1.1,2.2,2.4c0,1.7-1.5,2.7-4,2.7S43.5,11.3,43.5,9.6L43.5,9.6L43.5,9.6L43.5,9.6z"/>
	<path class="st0" d="M59.4,6.4V3.8h-7.1v2.6h2.1v5.7h2.9V6.4L59.4,6.4L59.4,6.4z"/>
	<path class="st0" d="M26.3,6.4V3.8h-7.1v2.6h2.1v5.7h2.9V6.4L26.3,6.4L26.3,6.4z"/>
	<path class="st0" d="M0.6,2.3L7.6,0V16c-5.1-2.1-7.1-6.2-7.1-8.5V2.3z"/>
	
		<linearGradient id="SVGID_1_" gradientUnits="userSpaceOnUse" x1="7.3447" y1="583.9597" x2="13.1353" y2="563.0164" gradientTransform="matrix(1 0 0 1 0 -566)">
		<stop  offset="0.26" style="stop-color:#48FF91"/>
		<stop  offset="0.66" style="stop-color:#0094FF"/>
		<stop  offset="0.8" style="stop-color:#0038FF"/>
		<stop  offset="0.89" style="stop-color:#0500FF"/>
	</linearGradient>
	<path class="st1" d="M14.7,2.3L7.6,0V16c5.1-2.1,7.1-6.2,7.1-8.5V2.3z"/>
	
		<linearGradient id="SVGID_00000098909663145624348040000002994521017270547601_" gradientUnits="userSpaceOnUse" x1="12.7703" y1="565.1423" x2="7.4268" y2="581.9567" gradientTransform="matrix(1 0 0 1 0 -566)">
		<stop  offset="2.000000e-02" style="stop-color:#0000FF"/>
		<stop  offset="8.000000e-02" style="stop-color:#0094FF"/>
		<stop  offset="0.16" style="stop-color:#48FF91"/>
		<stop  offset="0.42" style="stop-color:#0094FF"/>
		<stop  offset="0.68" style="stop-color:#0038FF"/>
		<stop  offset="0.9" style="stop-color:#0500FF"/>
	</linearGradient>
	<path style="fill:url(#SVGID_00000098909663145624348040000002994521017270547601_);" d="M14.7,2.3L7.6,0V16
		c5.1-2.1,7.1-6.2,7.1-8.5V2.3z"/>
</g>
</svg>
