<?xml version="1.0" encoding="utf-8"?>
<!-- Generator: Adobe Illustrator 28.0.0, SVG Export Plug-In . SVG Version: 6.00 Build 0)  -->
<svg version="1.1" id="Слой_1" xmlns="http://www.w3.org/2000/svg" xmlns:xlink="http://www.w3.org/1999/xlink" x="0px" y="0px"
	 viewBox="0 0 60 10" style="enable-background:new 0 0 60 10;" xml:space="preserve">
<style type="text/css">
	.st0{fill:#FFFFFF;}
	.st1{fill:#E17726;}
	.st2{fill:#E27625;}
	.st3{fill:#D5BFB2;}
	.st4{fill:#233447;}
	.st5{fill:#CC6228;}
	.st6{fill:#E27525;}
	.st7{fill:#F5841F;}
	.st8{fill:#C0AC9D;}
	.st9{fill:#161616;}
	.st10{fill:#763E1A;}
</style>
<path class="st0" d="M51.7,5.4c-0.4-0.3-0.9-0.5-1.3-0.7c-0.3-0.2-0.6-0.3-0.8-0.5c-0.4-0.3-0.3-1,0.1-1.3c0.6-0.4,1.7-0.2,1.8,0.7
	c0,0,0,0,0,0h1c0,0,0,0,0,0c-0.1-0.6-0.3-1.1-0.7-1.4c-0.4-0.3-0.9-0.5-1.4-0.5c-2.5,0-2.8,2.7-1.4,3.5c0.2,0.1,1.5,0.8,2,1.1
	c0.5,0.3,0.6,0.8,0.4,1.3c-0.2,0.4-0.7,0.7-1.2,0.6c-0.5,0-0.9-0.3-1.1-0.8c0-0.1,0-0.2,0-0.3c0,0,0,0,0,0h-1c0,0,0,0,0,0
	c0,0.8,0.2,1.2,0.7,1.6c0.5,0.4,1,0.5,1.6,0.5c1.4,0,2.2-0.8,2.3-1.6C52.7,6.6,52.4,5.9,51.7,5.4z"/>
<path class="st0" d="M16.3,1.6h-0.5h-0.5c0,0,0,0,0,0l-0.9,2.9c0,0-0.1,0-0.1,0l-0.9-2.9c0,0,0,0,0,0h-0.5h-0.5h-0.6c0,0,0,0,0,0V9
	c0,0,0,0,0,0h1.1c0,0,0,0,0,0V3.4c0,0,0.1-0.1,0.1,0l0.9,2.9l0.1,0.2c0,0,0,0,0,0h0.8c0,0,0,0,0,0l0.1-0.2l0.9-2.9c0,0,0.1,0,0.1,0
	V9c0,0,0,0,0,0h1.1c0,0,0,0,0,0V1.7c0,0,0,0,0,0H16.3L16.3,1.6z"/>
<path class="st0" d="M39.2,1.6C39.2,1.6,39.2,1.6,39.2,1.6l-0.9,2.9c0,0-0.1,0-0.1,0l-0.9-2.9c0,0,0,0,0,0h-1.6c0,0,0,0,0,0V9
	c0,0,0,0,0,0h1.1c0,0,0,0,0,0V3.4c0,0,0.1-0.1,0.1,0l0.9,2.9l0.1,0.2c0,0,0,0,0,0h0.8c0,0,0,0,0,0l0.1-0.2l0.9-2.9c0,0,0.1,0,0.1,0
	V9c0,0,0,0,0,0h1.1c0,0,0,0,0,0V1.7c0,0,0,0,0,0H39.2L39.2,1.6z"/>
<path class="st0" d="M28.8,1.6h-2h-1.1h-2c0,0,0,0,0,0v0.9c0,0,0,0,0,0h1.9V9c0,0,0,0,0,0h1.1c0,0,0,0,0,0V2.6h1.9c0,0,0,0,0,0
	L28.8,1.6C28.8,1.6,28.8,1.6,28.8,1.6z"/>
<path class="st0" d="M33.5,9.1h1c0,0,0,0,0-0.1l-2-7.4c0,0,0,0,0,0H32h-0.6H31c0,0,0,0,0,0L29,9c0,0,0,0.1,0,0.1h1c0,0,0,0,0,0
	l0.6-2.2c0,0,0,0,0,0h2.1c0,0,0,0,0,0L33.5,9.1C33.4,9.1,33.4,9.1,33.5,9.1z M30.9,5.8l0.8-2.9c0,0,0.1,0,0.1,0l0.8,2.9
	c0,0,0,0.1,0,0.1L30.9,5.8C30.9,5.9,30.9,5.8,30.9,5.8z"/>
<path class="st0" d="M46.4,9.1h1c0,0,0,0,0-0.1l-2-7.4c0,0,0,0,0,0h-0.4h-0.6h-0.4c0,0,0,0,0,0l-2,7.4c0,0,0,0.1,0,0.1h1
	c0,0,0,0,0,0l0.6-2.2c0,0,0,0,0,0h2.1c0,0,0,0,0,0L46.4,9.1C46.3,9.1,46.3,9.1,46.4,9.1z M43.8,5.8l0.8-2.9c0,0,0.1,0,0.1,0l0.8,2.9
	c0,0,0,0.1,0,0.1L43.8,5.8C43.8,5.9,43.8,5.8,43.8,5.8z"/>
<path class="st0" d="M19.2,8V5.7c0,0,0,0,0,0h2.9c0,0,0,0,0,0V4.7c0,0,0,0,0,0h-2.9c0,0,0,0,0,0V2.7c0,0,0,0,0,0h3.2c0,0,0,0,0,0
	V1.7c0,0,0,0,0,0h-3.3h-1.1c0,0,0,0,0,0v1v2v1V8v1c0,0,0,0,0,0h1.1h3.4c0,0,0,0,0,0v-1c0,0,0,0,0,0L19.2,8C19.2,8,19.2,8,19.2,8z"/>
<path class="st0" d="M59.4,9l-3.7-3.8c0,0,0,0,0-0.1l3.3-3.5c0,0,0-0.1,0-0.1h-1.4c0,0,0,0,0,0l-2.8,3c0,0-0.1,0-0.1,0V1.7
	c0,0,0,0,0,0h-1.1c0,0,0,0,0,0v7.4c0,0,0,0,0,0h1.1c0,0,0,0,0,0V5.8c0,0,0-0.1,0.1,0L58,9.1l0,0h1.4C59.4,9.1,59.5,9,59.4,9z"/>
<g>
	<polygon class="st1" points="10.2,0 6,3.1 6.8,1.3 	"/>
	<g>
		<polygon class="st2" points="0.5,0 4.7,3.2 3.9,1.3 		"/>
		<polygon class="st2" points="8.7,7.2 7.5,8.9 9.9,9.6 10.6,7.3 		"/>
		<polygon class="st2" points="0.1,7.3 0.8,9.6 3.1,8.9 2,7.2 		"/>
		<polygon class="st2" points="3,4.4 2.4,5.4 4.7,5.5 4.6,2.9 		"/>
		<polygon class="st2" points="7.7,4.4 6,2.9 6,5.5 8.3,5.4 		"/>
		<polygon class="st2" points="3.1,8.9 4.6,8.2 3.3,7.3 		"/>
		<polygon class="st2" points="6.1,8.2 7.5,8.9 7.3,7.3 		"/>
	</g>
	<g>
		<polygon class="st3" points="7.5,8.9 6.1,8.2 6.2,9.2 6.2,9.5 		"/>
		<polygon class="st3" points="3.1,8.9 4.5,9.5 4.4,9.2 4.6,8.2 		"/>
	</g>
	<polygon class="st4" points="4.5,6.7 3.3,6.3 4.1,5.9 	"/>
	<polygon class="st4" points="6.2,6.7 6.5,5.9 7.4,6.3 	"/>
	<g>
		<polygon class="st5" points="3.1,8.9 3.3,7.2 2,7.3 		"/>
		<polygon class="st5" points="7.3,7.2 7.5,8.9 8.7,7.3 		"/>
		<polygon class="st5" points="8.3,5.4 6,5.5 6.2,6.7 6.5,5.9 7.4,6.3 		"/>
		<polygon class="st5" points="3.3,6.3 4.1,5.9 4.5,6.7 4.7,5.5 2.4,5.4 		"/>
	</g>
	<g>
		<polygon class="st6" points="2.4,5.4 3.3,7.3 3.3,6.3 		"/>
		<polygon class="st6" points="7.4,6.3 7.3,7.3 8.3,5.4 		"/>
		<polygon class="st6" points="4.7,5.5 4.5,6.7 4.8,8.1 4.8,6.2 		"/>
		<polygon class="st6" points="6,5.5 5.9,6.2 5.9,8.1 6.2,6.7 		"/>
	</g>
	<polygon class="st7" points="6.2,6.7 5.9,8.1 6.1,8.2 7.3,7.3 7.4,6.3 	"/>
	<polygon class="st7" points="3.3,6.3 3.3,7.3 4.6,8.2 4.8,8.1 4.5,6.7 	"/>
	<polygon class="st8" points="6.2,9.5 6.2,9.2 6.1,9.1 4.5,9.1 4.4,9.2 4.5,9.5 3.1,8.9 3.6,9.3 4.5,10 6.1,10 7.1,9.3 7.5,8.9 	"/>
	<polygon class="st9" points="6.1,8.2 5.9,8.1 4.8,8.1 4.6,8.2 4.4,9.2 4.5,9.1 6.1,9.1 6.2,9.2 	"/>
	<g>
		<polygon class="st10" points="10.3,3.3 10.7,1.6 10.2,0 6.1,3 7.7,4.4 9.9,5 10.3,4.4 10.1,4.3 10.5,4 10.2,3.8 10.5,3.5 		"/>
		<polygon class="st10" points="0,1.6 0.4,3.3 0.1,3.5 0.5,3.8 0.2,4 0.5,4.3 0.3,4.4 0.8,5 3,4.4 4.6,3 0.5,0 		"/>
	</g>
	<polygon class="st7" points="9.9,5 7.7,4.4 8.3,5.4 7.3,7.3 8.7,7.3 10.6,7.3 	"/>
	<polygon class="st7" points="3,4.4 0.8,5 0.1,7.3 2,7.3 3.3,7.3 2.4,5.4 	"/>
	<polygon class="st7" points="6,5.5 6.1,3 6.8,1.3 3.9,1.3 4.6,3 4.7,5.5 4.8,6.2 4.8,8.1 5.9,8.1 5.9,6.2 	"/>
</g>
</svg>
