<svg fill="none" height="92" viewBox="0 0 92 92" width="92" xmlns="http://www.w3.org/2000/svg"><rect fill="#5468fe" height="91.2272" rx="18" width="91.2272" y=".772949"/><path d="m46.1356 20.7904c-17.3397 0-31.407 14.0672-31.407 31.4405s14.0673 31.4068 31.407 31.4068 31.407-14.0673 31.407-31.4405c0-17.3733-14.0336-31.4068-31.407-31.4068zm0 53.5704c-12.212 0-22.13-9.918-22.13-22.1299s9.918-22.1298 22.13-22.1298 22.13 9.9179 22.13 22.1298-9.8843 22.1299-22.13 22.1299zm0-39.7393v16.4962c0 .4723.506.8096.9446.5735l14.6409-7.5903c.3373-.1687.4385-.5735.2698-.9108-3.0361-5.3301-8.6698-8.9734-15.1806-9.2095-.3373 0-.6747.2698-.6747.6409zm-20.5107-12.1107-1.9229-1.9228c-1.8891-1.8892-4.9253-1.8892-6.8144 0l-2.294 2.2939c-1.8891 1.8891-1.8891 4.9252 0 6.8144l1.8892 1.8891c.3036.3036.7421.2361 1.012-.0675 1.1133-1.518 2.3277-2.9686 3.6771-4.318 1.3831-1.3831 2.8-2.5975 4.3518-3.7108.3373-.2024.3711-.6747.1012-.9783zm30.7998-4.9927v-3.812c0-2.665-2.159-4.82402-4.8241-4.82402h-11.2336c-2.6651 0-4.8241 2.15902-4.8241 4.82402v3.9132c0 .4386.4048.7422.8434.641 3.1373-.9109 6.4433-1.3831 9.783-1.3831 3.2048 0 6.3759.4385 9.4458 1.2819.4048.1012.8096-.2024.8096-.641z" fill="#fff"/></svg>