<svg fill="none" height="92" viewBox="0 0 92 92" width="92" xmlns="http://www.w3.org/2000/svg"><rect fill="#1f2265" height="91.2272" rx="18" width="91.2272" x=".554688" y=".772949"/><g fill="#fff"><path d="m59.6787 68.1724c.006-3.977 3.2339-7.1967 7.2108-7.1927 3.977.0041 7.1983 3.2302 7.1963 7.2072s-3.2266 7.1999-7.2035 7.1999c-1.912-.0014-3.745-.7623-5.096-2.1153-1.3509-1.353-2.109-3.1872-2.1076-5.0991"/><path d="m52.3926 75.1388h3.6027v-39.6805h-3.6027z"/><path d="m45.1074 75.1388h3.6027v-39.6805h-3.6027z"/><path d="m37.8223 75.1388h3.6026v-39.6805h-3.6026z"/><path d="m17.7871 35.4238h56.7323v-3.6081h-56.7323z"/><path d="m17.7871 28.1364h56.7323v-3.6064h-56.7323z"/><path d="m17.7871 20.851h56.7323v-3.6064h-56.7323z"/><path d="m59.6787 68.1724c.006-3.977 3.2339-7.1967 7.2108-7.1927 3.977.0041 7.1983 3.2302 7.1963 7.2072s-3.2266 7.1999-7.2035 7.1999c-1.912-.0014-3.745-.7623-5.096-2.1153-1.3509-1.353-2.109-3.1872-2.1076-5.0991"/><path d="m52.3926 75.1388h3.6027v-39.6805h-3.6027z"/><path d="m45.1074 75.1388h3.6027v-39.6805h-3.6027z"/><path d="m37.8223 75.1388h3.6026v-39.6805h-3.6026z"/><path d="m17.7871 35.4238h56.7323v-3.6081h-56.7323z"/><path d="m17.7871 28.1364h56.7323v-3.6064h-56.7323z"/><path d="m17.7871 20.851h56.7323v-3.6064h-56.7323z"/></g></svg>