<svg fill="none" height="92" viewBox="0 0 92 92" width="92" xmlns="http://www.w3.org/2000/svg"><rect fill="#52b4e7" height="91.2272" rx="18" width="91.2272" x=".109375" y=".772949"/><path clip-rule="evenodd" d="m41.6531 10.9543c11.5485 0 28.9985 3.5451 37.1216 11.6746 2.0578 2.0612 4.7504 6.0983 4.7504 12.0109 0 10.5121-8.4631 26.6405-17.8077 35.9952-4.831 4.8355-12.5158 11.1548-22.8528 11.1548-10.1053 0-17.8228-6.8691-20.057-9.1061-8.5588-8.5663-14.68944-21.569-14.68944-33.6929 0-7.65 2.17874-14.3409 7.73764-19.9019 5.1484-5.1519 14.0195-8.1346 25.7973-8.1346zm14.294 41.9229c3.899-3.9041 4.9494-8.712 4.9494-11.3582 0-1.9181-.5038-4.7326-2.9017-7.1302-3.6774-3.6807-7.7502-4.7201-12.1807-4.7201-5.6119 0-9.3825 1.7751-11.8937 4.2907-1.9696 1.9709-3.6723 5.0013-3.6723 9.307 0 4.3033 2.292 8.4609 4.7907 10.959 2.3072 2.3098 5.9342 4.0196 9.5864 4.0196s7.4228-1.4638 11.3219-5.3678z" fill="#fff" fill-rule="evenodd"/></svg>