<svg fill="none" height="92" viewBox="0 0 92 92" width="92" xmlns="http://www.w3.org/2000/svg" xmlns:xlink="http://www.w3.org/1999/xlink"><linearGradient id="a" gradientUnits="userSpaceOnUse" x1=".664062" x2="88.8862" y1="17.989" y2="75.2136"><stop offset="0" stop-color="#1381d7"/><stop offset="1" stop-color="#03c5e5"/></linearGradient><rect fill="url(#a)" height="91.2272" rx="18" width="91.2272" x=".664062" y=".772949"/><g fill="#fff"><path d="m76.3746 11.9903-50.1585 8.0067c-5.6783.9064-10.4321 5.5418-11.096 11.4626.0508.315.1015.6299.1015.6299.0508.315.3662.2646.6817.2142l50.1584-8.0066c5.6784-.9064 10.4322-5.5418 11.0961-11.4626-.0508-.315-.1015-.6299-.1015-.6299-.3663-.2646-.3662-.2646-.6817-.2143z"/><path d="m76.7688 36.1648-50.017 7.9841c-5.6623.9039-10.4027 5.5262-11.0647 11.4303.0506.3141.1012.6281.1012.6281.0506.3141.3652.2639.6798.2137l50.0169-7.9841c5.6623-.9039 10.4028-5.5262 11.0647-11.4303-.0506-.3141-.1012-.6281-.1012-.6281-.3652-.2639-.3651-.2639-.6797-.2137z"/><path d="m76.3527 60.4445-50.1066 7.9984c-5.6725.9055-10.4214 5.5361-11.0846 11.4508.0507.3146.1014.6293.1014.6293.0507.3146.3659.2643.681.214l50.1067-7.9984c5.6724-.9055 10.4214-5.5361 11.0845-11.4508-.0507-.3146-.1014-.6293-.1014-.6293-.3151.0503-.681-.214-.681-.214z"/></g></svg>