<svg fill="none" height="92" viewBox="0 0 92 92" width="92" xmlns="http://www.w3.org/2000/svg"><rect fill="#000" height="91.2272" rx="18" width="91.2272" x=".21875" y=".772949"/><path d="m76.2784 52.5632v5.9074c0 .1023-.0407.2005-.1131.273s-.1707.1135-.2734.1139h-7.6271c-.0508-.0002-.1011.0095-.148.0287-.047.0191-.0898.0473-.1258.0829-.0361.0356-.0647.078-.0843.1246-.0197.0466-.0299.0967-.0301.1473v20.1362c.0002.0506-.0096.1008-.0288.1476s-.0475.0894-.0832.1253c-.0357.036-.0782.0645-.125.0841-.0467.0196-.097.0298-.1477.03h-6.1669c-.1025 0-.2008-.0406-.2733-.1128-.0724-.0722-.1131-.1702-.1131-.2724v-20.1132c-.0005-.1023-.0416-.2003-.1144-.2725-.0727-.0721-.1712-.1127-.2739-.1127h-7.6574c-.1028-.0004-.2013-.0414-.274-.1138-.0727-.0725-.1137-.1706-.1142-.2731v-5.9305c.0005-.1023.0416-.2003.1143-.2725.0728-.0722.1712-.1127.2739-.1127h23.0079c.1019.0009.1993.0419.271.1141.0717.0721.1119.1695.1119.2711zm-38.9065-38.8343v16.0199c0 1.8656-.2404 3.6779-1.0542 5.3873-.4961 1.0851-1.218 2.0525-2.1179 2.8381s-1.9572 1.3714-3.1016 1.7185c-2.8244.9088-5.6541.8574-8.409-.3089-2.3453-.9922-3.9712-2.7016-4.8776-5.0837-.5198-1.4074-.771-2.8992-.7408-4.3986v-1.8408c0-.0508.01-.1011.0296-.1481.0195-.0469.0481-.0896.0841-.1255.0361-.0359.0789-.0644.126-.0839.0471-.0194.0975-.0294.1485-.0294h6.0227c.1029 0 .2017.0407.2745.1133s.1137.171.1137.2736c0 .4899-.0232.9692.0125 1.4449.0254.7516.1207 1.4991.2849 2.2331.3277 1.2212 1.3018 1.9188 2.5768 1.9632.4868.038.9763.0243 1.4603-.0409 1.373-.2414 2.1369-1.1023 2.299-2.5472.056-.4713.0851-.9454.0872-1.42v-16.0164c0-.1021.0407-.2001.1132-.2723.0725-.0723.1708-.1129.2733-.1129h6.003c.1016 0 .1991.0399.2714.111s.1137.1677.1151.2689c.0011.0189.0011.0379 0 .0568zm1.3036 57.2949c0 2.6839-1.1023 4.9276-3.1912 6.4914-1.0502.764-2.2311 1.3312-3.4851 1.6739-1.401.389-2.8498.5808-4.3041.5698-3.4815 0-6.4109-.7722-8.4606-2.2348-1.0263-.7205-1.8697-1.6699-2.4629-2.7727-.6141-1.1772-.9573-2.4761-1.0043-3.8021-.0032-.0562.0049-.1125.0236-.1656s.0478-.102.0855-.1439.0834-.0759.1343-.1002c.0509-.0242.1062-.0383.1626-.0412h6.1046c.1042-.0001.2049.0374.2834.1056.0786.0682.1297.1625.144.2654.178 1.1822.6588 2.0253 1.4816 2.5738.8227.5485 1.9446.8023 3.4725.8023 1.9589 0 4.0567-.6763 4.0567-2.5756s-1.8556-2.3129-5.2249-3.1312l-.3882-.0958c-2.2794-.5325-4.6568-1.1503-6.4696-2.3431-2.064-1.3597-3.0683-3.2572-3.0683-5.8045-.0229-1.286.2603-2.5592.8262-3.7151.532-1.0348 1.3134-1.9216 2.2741-2.581 1.8343-1.2869 4.452-1.9667 7.5488-1.9667 2.9277 0 5.4368.6709 7.255 1.9419.9424.6478 1.7249 1.5006 2.2883 2.4939.5978 1.0941.945 2.3065 1.0169 3.5501.0046.0588-.0032.1179-.0229.1735-.0196.0557-.0506.1066-.0911.1496-.0406.0433-.0897.0779-.1442.1018-.0545.0238-.1133.0362-.1728.0367h-5.8926c-.1016.0002-.1999-.0352-.2778-.1002-.0779-.0649-.1302-.1552-.1478-.2549-.061-.4132-.2054-.8099-.4246-1.166-.2191-.356-.5085-.6641-.8505-.9055-.6963-.4863-1.6223-.7331-2.7549-.7331-2.1619 0-3.615.916-3.615 2.281 0 1.6792 1.9215 2.1088 5.7502 2.9661l.0783.0178c2.7442.6372 4.9097 1.3029 6.5676 2.4851 1.9589 1.3792 2.8992 3.33 2.8992 5.9535z" fill="#fff"/><path d="m74.6915 34.7633c1.145-2.0573 1.5867-4.2974 1.5867-6.6369v-.0018-14.4401-.0231c0-.1003-.0396-.1966-.1103-.268-.0706-.0714-.1667-.1122-.2673-.1136h-5.8356c-.0503.0007-.1.0112-.1462.0311-.0462.0198-.088.0485-.123.0844-.0351.036-.0627.0784-.0813.125s-.0278.0963-.0271.1464v.1776c.0107 4.5417.0107 9.0829 0 13.6235.0019.6481-.0445 1.2954-.1389 1.9366-.2796 1.7999-1.1041 3.22-2.8315 3.93-.9883.4101-2.0301.4615-3.07.3657-1.8806-.1704-3.291-1.0491-4.0175-2.904-.4078-1.0438-.504-2.1461-.504-3.2573v-13.8454c.0007-.0499-.0084-.0994-.0269-.1458-.0186-.0464-.046-.0886-.0809-.1244s-.0765-.0643-.1225-.0841c-.046-.0197-.0954-.0302-.1454-.0309h-5.8767c-.0967.0003-.1895.0386-.2582.1065-.0709.0727-.1106.1702-.1104.2716 0 4.7855-.016 9.5622.0125 14.3549.0094 1.0236.1029 2.0447.2795 3.0531.3954 2.2987 1.3624 4.324 2.9989 5.9731 1.7915 1.7963 3.9676 2.7229 6.4216 3.0637 2.4094.3319 4.7565.1775 7.0395-.6798 2.3246-.8496 4.2575-2.5169 5.435-4.688z" fill="#fb2"/></svg>