<svg fill="none" height="92" viewBox="0 0 92 92" width="92" xmlns="http://www.w3.org/2000/svg"><rect fill="#00a666" height="91.2272" rx="18" width="91.2272" x=".109375" y=".663574"/><path d="m61.0168 19.9398c-4.6181 0-10.1362 1.6521-15.4196 7.395-5.2833-5.7429-10.8406-7.395-15.4196-7.395 0 0-17.6503-1.3374-17.6503 19.3922v33.5528h12.7975v-31.6647c0-9.2831 6.1835-9.4797 7.3967-9.2044 0 0 2.2307.118 4.2658 2.2421 0 0-4.0701 5.3495-4.3832 12.0758 0 0-.9001 17.4255 12.9931 17.4255 13.8933 0 12.9932-17.4255 12.9932-17.4255-.3131-6.7263-4.3833-12.0758-4.3833-12.0758 2.0351-2.1241 4.2658-2.2421 4.2658-2.2421 1.1741-.2753 7.3967-.0787 7.3967 9.2044v31.6647h12.7975v-33.5528c-.0391-20.7296-17.6503-19.3922-17.6503-19.3922zm-15.4587 34.3789c-2.7395 0-3.6397-3.4615-3.6788-6.7657-.0783-5.7429 3.6396-9.8731 3.6788-9.9517.0783.0786 3.757 4.2088 3.6788 9.9517 0 3.3042-.9393 6.7657-3.6788 6.7657z" fill="#fff"/></svg>