<svg fill="none" height="92" viewBox="0 0 92 92" width="92" xmlns="http://www.w3.org/2000/svg"><rect fill="#ffe52b" height="91.2272" rx="18" width="91.2272" x=".21875" y=".663574"/><path d="m81.204 32.3396c-.8867 0-1.6256.7389-1.6256 1.6256s.7389 1.6256 1.6256 1.6256 1.6256-.7389 1.6256-1.6256-.7389-1.6256-1.6256-1.6256zm-1.0345 19.6549h2.2167v-13.1525h-2.2167zm-11.0836-11.3791c2.8078 0 4.4334 2.0689 4.4334 4.729 0 2.66-1.4778 5.0245-4.4334 5.0245-2.8079 0-4.2857-2.3645-4.2857-5.0245 0-2.5123 1.6256-4.729 4.2857-4.729zm6.5024-1.7734h-2.2168v1.9211c-1.0344-1.33-2.66-2.2167-4.5812-2.2167-3.9901 0-6.3546 3.2512-6.3546 6.9458 0 3.6945 2.5123 6.9457 6.3546 6.9457 1.9212 0 3.399-.7389 4.5812-2.2167v1.7733h2.2168zm-16.9949 10.3447c-.8867 0-1.6256.7389-1.6256 1.4778 0 .8867.7389 1.6256 1.6256 1.6256s1.6256-.7389 1.6256-1.6256c0-.7389-.7389-1.4778-1.6256-1.4778z" fill="#808080"/><g fill="#000"><path d="m13.5213 41.9453v-6.6501h-4.43341v17.1426h4.43341v-6.9457h6.3546v6.9457h4.4335v-17.1426h-4.4335v6.6501z"/><path d="m32.4816 57.9059 1.9211-1.7734c1.1823-1.1822 1.9212-2.2167 1.9212-3.9901 0-2.66-2.2167-4.4334-4.729-4.4334-2.9556 0-4.729 1.9211-4.729 4.729h3.5467v-.5911c0-.8867.4434-1.4778 1.3301-1.4778s1.33.8866 1.33 1.6255c0 1.1823-.7389 2.2168-1.33 3.1035l-5.1724 5.4679h9.9014v-2.6601z"/><path d="m46.373 38.9898c2.6601 0 4.8768 2.2167 4.8768 4.5812 0 2.9557-2.2167 5.1724-4.8768 5.1724-2.66 0-4.8767-2.2167-4.8767-5.1724 0-2.3645 2.2167-4.5812 4.8767-4.5812zm0-4.2857c-4.8767 0-9.458 3.6946-9.458 8.8669 0 5.6157 3.9901 9.4581 9.458 9.4581s9.458-3.9901 9.458-9.4581c0-5.1723-4.5812-8.8669-9.458-8.8669"/></g></svg>