<svg fill="none" height="92" viewBox="0 0 92 92" width="92" xmlns="http://www.w3.org/2000/svg" xmlns:xlink="http://www.w3.org/1999/xlink"><linearGradient id="a" gradientUnits="userSpaceOnUse" x1="45.6136" x2="45.6136" y1=".218262" y2="91.4455"><stop offset="0" stop-color="#ff2b5a"/><stop offset="1" stop-color="#f08a5f"/></linearGradient><linearGradient id="b"><stop offset="0" stop-color="#fff3b3" stop-opacity="0"/><stop offset="1" stop-color="#fff4bd"/></linearGradient><linearGradient id="c" gradientUnits="userSpaceOnUse" x1="20.8178" x2="3.44755" xlink:href="#b" y1="-.047119" y2="91.7105"/><linearGradient id="d" gradientUnits="userSpaceOnUse" x1="93.3482" x2="67.6451" xlink:href="#b" y1=".218075" y2="102.419"/><linearGradient id="e" gradientUnits="userSpaceOnUse" x1="95.7353" x2="68.6819" xlink:href="#b" y1="60.6829" y2="108.509"/><clipPath id="f"><rect height="91.2272" rx="18" width="91.2272" y=".218262"/></clipPath><g clip-path="url(#f)"><rect fill="url(#a)" height="91.2272" rx="18" width="91.2272" y=".218262"/><path d="m1.85684 24.6165c.63647-2.5459-.972381-3.7128-1.85636412-3.978l-5.30390588-1.0608-3.44755-21.2156 33.41468-2.38676 3.1823 14.58576c-1.5028-.1768-5.2509.6895-8.2211 5.5691-3.7127 6.0995-1.0607 11.1382-5.3039 17.5029-3.3945 5.0918-10.96138 7.7791-14.32052412 8.4863v-12.7294c.35359512-.5304 1.21990412-2.2277 1.85636412-4.7735z" fill="#9455c0"/><path d="m30.7629 21.9644c-.2122-5.3039-2.5636-19.00571-3.7127-25.19361l29.1715-2.38676 15.1161 14.05536c3.7127 4.50831 10.1835 14.53271 6.3647 18.56371-4.7735 5.0387-7.9559 5.3039-17.2377 6.3647-9.2819 1.0608-31.5583 9.8122-33.945 11.4034-2.3868 1.5912-7.4255 10.3426-8.4863 11.6686s-1.5912 2.6519-2.1216 5.5691c-.5303 2.9171-1.5911 4.5083-4.2431 5.3039-2.65194.7956-3.18233 3.7127-4.7735 2.6519-1.59118-1.0607.26519-3.7127.53039-4.7735.26519-1.0608-.53039-1.8563.26519-3.9779.79559-2.1216 4.50832-3.4475 7.42552-4.7735 2.9171-1.326 9.0166-8.4863 11.9338-17.2377 2.9171-8.7515 3.9779-10.6079 3.7127-17.2377z" fill="#b754a7"/><path d="m88.5761 53.5225c-1.4851-1.4851-1.1492-3.8012-.7956-4.7735l5.8343-.7956-.5304 8.7514c-.884-.442-3.0232-1.6972-4.5083-3.1823z" fill="#b755a8"/><path d="m70.0111 18.2515c-3.9779-2.3867-9.8122-7.4254-10.6078-18.033261l28.9063-9.812229c7.0719 20.68529 17.5564 61.73749 2.9172 60.46459-18.2985-1.5912-16.7073-14.3206-15.6466-21.4809 1.0608-7.1602-1.5911-8.7514-5.5691-11.1382z" fill="#814abf"/><path d="m14.5855 8.17421c2.1215-3.97793 2.3867-4.77352 1.8563-7.955865 20.8621-.795586 62.2149-1.909405 60.7298 0-1.8564 2.386755-7.4255 3.182345-13.7902 2.121565-6.3646-1.06078-8.221-.53039-10.873 2.12156-2.6519 2.65196-5.3039 7.42543-11.4034 9.54703s-11.6686 0-15.1161-1.5912c-3.4476-1.5911-6.0995 0-7.6907 2.652-1.5912 2.6519-5.3039 2.6519-6.0995.2652-.7956-2.3868.2652-3.1824 2.3868-7.16029z" fill="#6f39af"/><path d="m83.8015 87.4676c-1.273 1.6972-.884 3.3591-.5304 3.9779-9.9007.442-29.2246 1.0608-27.3152 0 2.3868-1.326 2.652-2.6519 6.0995-6.8951 3.4476-4.2431 5.3039-3.9779 9.5471-3.9779 4.2431 0 6.895-1.5912 8.4862-3.9779 1.5912-2.3868 2.652-5.3039 5.8343-5.5691 3.1824-.2652 3.7128 2.6519 2.3868 4.2431s-1.5912 1.5912-1.5912 5.8343-1.326 4.2431-2.9171 6.3647z" fill="#b764a5"/><path clip-rule="evenodd" d="m45.609 23.5554c-16.1126 0-29.1666 12.8476-29.1666 28.6932v12.2942c0 2.2637 1.8661 4.0958 4.1616 4.0958 2.2986 0 4.1745-1.8321 4.1745-4.0958v-12.2942c0-2.2666 1.8566-4.1021 4.1648-4.1021 2.2986 0 4.165 1.8355 4.165 4.1021v12.2942c0 2.2637 1.8661 4.0958 4.1648 4.0958 2.305 0 4.1711-1.8321 4.1711-4.0958v-12.2942c0-2.2666 1.8664-4.1021 4.1648-4.1021 2.3082 0 4.1746 1.8355 4.1746 4.1021v12.2942c0 2.2637 1.8661 4.0958 4.1615 4.0958 2.2987 0 4.1648-1.8321 4.1648-4.0958v-12.2942c0-2.2666 1.8664-4.1021 4.1746-4.1021 2.2986 0 4.165 1.8355 4.165 4.1021v12.2942c0 2.2637 1.8661 4.0958 4.1711 4.0958 2.2986 0 4.1648-1.8321 4.1648-4.0958v-12.2942c0-15.8456-13.0636-28.6932-29.1764-28.6932z" fill="#fff" fill-rule="evenodd"/><path d="m0 94.0973 12.199-94.1444191h29.4367l-33.14944 94.1444191z" fill="url(#c)" opacity=".2"/><path d="m15.9111 94.0973 55.1607-94.1444191h55.4262l-101.5702 94.1444191z" fill="url(#d)" opacity=".2"/><path d="m36.5967 94.0975 55.1606-41.1053 2.3868 21.2156-38.9837 19.8897z" fill="url(#e)" opacity=".2"/></g></svg>