<svg fill="none" height="92" viewBox="0 0 92 92" width="92" xmlns="http://www.w3.org/2000/svg"><rect fill="#000" height="91.2272" rx="18" width="91.2272" x=".109375" y=".218262"/><path d="m10.1366 35.6331h3.932l1.4645 10.7452 1.4915-10.7452h3.6608v20.3421h-2.8746v-13.1512l-1.844 13.1512h-1.2203l-1.8711-13.1512v13.1512h-2.7388zm15.0253 9.7037h.7857c.9216 0 1.0581-.6579 1.0581-1.4787v-4.0686c0-.792-.1622-1.3943-1.0581-1.3943h-.7857zm0 2.923v7.7154h-3.0642v-20.3408h4.8535c2.1685 0 3.1452.9299 3.1452 3.3629v5.5436c0 2.4075-1.0572 3.7189-3.1452 3.7189zm11.0363-8.3061c0-1.0646-.3536-1.5587-1.057-1.5587-.7875 0-1.0846.5201-1.0846 1.5587v11.7037c0 .8736.2433 1.5562 1.111 1.5562.8147 0 1.0306-.6823 1.0306-1.5562zm3.1171 11.4822c0 2.8443-.9482 4.7855-3.9026 4.7855h-.5165c-2.9283 0-3.9585-1.9412-3.9585-4.7855v-11.318c0-2.8161 1.0572-4.676 3.931-4.676h.5159c2.9827 0 3.9309 1.8599 3.9309 4.6492v11.3448zm5.3154-15.9929c2.5223 0 3.4984 1.1213 3.4984 3.5266v3.3358h-2.9561v-2.925c0-.6836-.1348-1.2033-.8676-1.2033-.7325 0-.8941.4645-.8941 1.4218v.381c0 1.1488.2161 1.7779 1.2471 3.1199l1.9522 2.5399c1.3827 1.8064 1.8172 2.8453 1.8172 5.1411v.6551c0 2.9808-1.2748 4.7574-3.9593 4.7574h-.5976c-2.4399 0-3.7413-1.3392-3.7413-3.8546v-4.0739h3.0363v3.5551c0 .9307.2991 1.4223 1.0041 1.4223.7326 0 1.0032-.4916 1.0032-1.7511v-.4634c0-1.4499-.1348-1.9702-1.2473-3.4182l-1.9522-2.515c-1.3016-1.6962-1.6808-3.0076-1.6808-5.0309v-.6568c0-2.7054 1.3561-3.9636 3.7688-3.9636h.569zm9.0572 0c2.5216 0 3.4965 1.1213 3.4965 3.5266v3.3358h-2.9543v-2.925c0-.6836-.1356-1.2033-.8677-1.2033-.7326 0-.8959.4645-.8959 1.4218v.381c0 1.1488.2178 1.7779 1.2486 3.1199l1.9522 2.5399c1.3842 1.8064 1.816 2.8453 1.816 5.1411v.6551c0 2.9808-1.2738 4.7574-3.9596 4.7574h-.5958c-2.4404 0-3.7416-1.3392-3.7416-3.8546v-4.0739h3.0363v3.5551c0 .9307.2993 1.4223 1.0042 1.4223.7321 0 1.0035-.4916 1.0035-1.7511v-.4634c0-1.4499-.1356-1.9702-1.2477-3.4182l-1.952-2.515c-1.3012-1.6962-1.6827-3.0076-1.6827-5.0309v-.6568c0-2.7054 1.3578-3.9636 3.7694-3.9636h.5706zm12.4782 11.2658v6.396h.9216c.9753 0 1.1931-.4656 1.1931-1.3666v-3.7181c0-.8477-.2178-1.3113-1.1931-1.3113zm0-8.3123v5.2753h.9216c.8137 0 1.0564-.572 1.0564-1.4214v-2.5688c0-.8213-.2161-1.2849-1.0564-1.2849h-.9216zm-3.0649-2.7621h4.8268c2.5491 0 3.227 1.3403 3.227 3.3071v3.1183c0 1.694-.7315 2.5146-1.519 2.8162.8132.2717 1.7625.9556 1.7625 2.9794v4.4013c0 2.1598-.9493 3.7183-3.2546 3.7183h-5.0429v-20.3406zm12.6019 0v17.1984h2.4204v3.1424h-5.4841v-20.3408zm9.9666 0v2.9531h-3.4869v5.3309h2.7165v3.0896h-2.7165v5.8772h3.578v3.09h-6.6402v-20.3408zm-27.1145 0h3.0636v20.3408h-3.0636zm-52.87161 0h3.06305v20.3408h-3.06305z" fill="#00dfa5"/></svg>