<svg fill="none" height="92" viewBox="0 0 92 92" width="92" xmlns="http://www.w3.org/2000/svg" xmlns:xlink="http://www.w3.org/1999/xlink"><linearGradient id="a" gradientUnits="userSpaceOnUse" x1="5.98565" x2="82.8953" y1="6.55349" y2="85.237"><stop offset="0" stop-color="#fddb00"/><stop offset=".0457" stop-color="#fbcc04"/><stop offset=".1762" stop-color="#f7a80d"/><stop offset=".3132" stop-color="#f48915"/><stop offset=".4567" stop-color="#f1721b"/><stop offset=".6093" stop-color="#ef6120"/><stop offset=".7774" stop-color="#ee5722"/><stop offset=".991" stop-color="#ee5423"/><stop offset="1" stop-color="#ee5423"/></linearGradient><linearGradient id="b" gradientUnits="userSpaceOnUse" x1="17.7212" x2="63.2742" y1="66.2166" y2="66.2166"><stop offset=".2768" stop-color="#fff" stop-opacity="0"/><stop offset=".3213" stop-color="#f7f7f7" stop-opacity=".0104"/><stop offset=".3897" stop-color="#e2e2e2" stop-opacity=".0263"/><stop offset=".4734" stop-color="#c0bfbf" stop-opacity=".0458"/><stop offset=".5692" stop-color="#908e8f" stop-opacity=".0681"/><stop offset=".6753" stop-color="#534f51" stop-opacity=".0929"/><stop offset=".7884" stop-color="#090406" stop-opacity=".1192"/><stop offset=".7917" stop-color="#070204" stop-opacity=".12"/><stop offset=".905" stop-color="#070204" stop-opacity=".23"/></linearGradient><linearGradient id="c" gradientUnits="userSpaceOnUse" x1="65.9126" x2="82.1699" y1="64.4199" y2="64.4199"><stop offset=".1078" stop-color="#070204" stop-opacity=".23"/><stop offset=".2389" stop-color="#070204" stop-opacity=".2"/><stop offset=".3002" stop-color="#161113" stop-opacity=".1808"/><stop offset=".4191" stop-color="#3e3a3b" stop-opacity=".1435"/><stop offset=".5837" stop-color="#7e7b7c" stop-opacity=".092"/><stop offset=".7855" stop-color="#d5d4d5" stop-opacity=".0287"/><stop offset=".8771" stop-color="#fff" stop-opacity="0"/></linearGradient><rect fill="url(#a)" height="91.2272" rx="18" width="91.2272" x=".664062" y=".218262"/><path d="m80.6105 66.7361c-1.2608-1.5958-3.2319-3.0044-4.8089-4.0531-3.402-2.2614-6.5061-3.8753-9.8884-5.1267l-15.9564-44.0361c-.0893-.2817-.4681-1.3716-1.2746-2.477-1.2961-1.77618-3.0327-2.71581-5.0228-2.71581-1.9909 0-3.7284.93877-5.0236 2.71581-.8057 1.1045-1.1836 2.1936-1.2738 2.477l-22.7605 62.6319c-.3195.8787.1331 1.8501 1.0118 2.1705.1915.0695.3865.103.5788.103.5343 0 1.0419-.2576 1.3605-.6905.0533-.0653.1031-.134.1478-.2087 3.4037-5.7426 8.2522-10.5523 14.0205-13.9115 5.9409-3.4596 12.7373-5.2881 19.6539-5.2881 3.1453 0 6.2441.3753 9.2417 1.1019l-.0009.0026c.9096.2439 1.8028.5102 2.6583.7919l2.909 8.0529.0069.0172c.012.0309 1.1775 3.1487 2.0201 5.2753.9886 2.4951 2.7991 4.1527 5.0984 4.6672.4801.1074.9705.1598 1.4635.1598 1.8509 0 3.7302-.737 5.1516-2.0708 1.4473-1.3571 2.2237-3.0877 2.2469-5.0039.0197-1.6336-.5497-3.3042-1.5598-4.5848zm-50.5937-6.0483c-3.1298 1.8226-6.0105 4.0385-8.5708 6.5774l19.1446-52.722c.0043-.0155.2895-.8203.8331-1.5727.5832-.8073 1.2274-1.2556 2.2349-1.2556 1.0057 0 1.6628.4552 2.2408 1.2565.536.7438.8056 1.5074.828 1.5769l15.1044 41.6931c-3.3857-.8563-6.8943-1.3012-10.4578-1.3012-7.5136 0-14.8992 1.9874-21.3572 5.7476zm47.5885 13.166c-.9937.9318-2.3568 1.3441-3.5584 1.0753-1.1878-.2654-2.1171-1.1672-2.6874-2.6085-.8083-2.0407-1.924-5.0202-1.9927-5.2048l-1.8981-5.2539c2.1335.9749 4.224 2.1584 6.4563 3.6426 1.3682.9096 3.0619 2.1103 4.0256 3.3308.8563 1.0847 1.4704 3.3153-.3453 5.0185z" fill="#fff"/><path d="m51.3754 54.9399c-7.5144 0-14.9 1.9875-21.358 5.7477-3.1298 1.8226-6.0105 4.0385-8.5708 6.5774l-.5051 1.3794-3.2208 8.8483c3.4029-5.728 8.2436-10.5266 14.0008-13.8788 5.9409-3.4596 12.7373-5.2882 19.6539-5.2882 3.1453 0 6.2441.3753 9.2417 1.1019l-.0009.0026c.9096.2439 1.8028.5102 2.6583.7919l-1.4421-3.9818c-3.3857-.8555-6.8935-1.3004-10.457-1.3004z" fill="url(#b)"/><path d="m80.6104 66.736c-1.2609-1.5959-3.232-3.0044-4.8089-4.0531-3.4021-2.2615-6.5061-3.8753-9.8884-5.1267l1.5554 4.3056h.0009c2.1335.9748 4.224 2.1584 6.4563 3.6425 1.3682.9096 3.0619 2.1103 4.0256 3.3308.4543.5754.8408 1.4747.8314 2.447h3.3874c.0095-1.6208-.5574-3.2758-1.5597-4.5461z" fill="url(#c)"/></svg>